<svg width="61" height="68" viewBox="0 0 61 68" xmlns="http://www.w3.org/2000/svg" xmlns:xlink="http://www.w3.org/1999/xlink"><defs><path d="M42.757 25.256v18.257c0 .16.087.306.227.387l1.79 1.013a.454.454 0 0 0 .68-.385V21.443a.454.454 0 0 0-.68-.385L30 29.428l-14.773-8.37c-.303-.171-.681.043-.681.385v2.028c0 .16.087.306.227.386l15 8.5a.474.474 0 0 0 .455 0l12.53-7.1zm-25.515 6.08l10.74 6.086c.14.079.313.079.454 0l1.79-1.014a.441.441 0 0 0 0-.771l-15-8.5a.453.453 0 0 0-.68.385v17c0 .342.377.557.68.386l1.79-1.014a.445.445 0 0 0 .226-.385V31.336z" id="a"/></defs><g fill="none" fill-rule="evenodd"><path d="M30.888 0L.89 17H.889v34l30 17h.001l30-17V17l-30-17zM3.368 49.595v-31.19L30.89 2.812l27.52 15.595v31.19L30.89 65.19 3.37 49.595z" fill="#FFF"/><g transform="translate(.889)"><use xlink:href="#a"/><use fill="#FFF" xlink:href="#a"/></g></g></svg>