<?xml version="1.0" encoding="UTF-8" standalone="no"?>
<svg width="61px" height="68px" viewBox="0 0 61 68" version="1.1" xmlns="http://www.w3.org/2000/svg" xmlns:xlink="http://www.w3.org/1999/xlink" xmlns:sketch="http://www.bohemiancoding.com/sketch/ns">
    <defs>
        <path d="M42.7572414,25.2561845 L42.7572414,43.5131542 C42.7572414,43.6728512 42.8441379,43.8191542 42.9837931,43.8995178 L44.7734483,44.913336 C45.0755172,45.0843663 45.4541379,44.8700633 45.4541379,44.5280027 L45.4541379,21.443033 C45.4541379,21.1009724 45.0755172,20.8866693 44.7734483,21.0576996 L30,29.4289118 L15.2265517,21.0576996 C14.9244828,20.8866693 14.5458621,21.1009724 14.5458621,21.443033 L14.5458621,23.4706693 C14.5458621,23.6303663 14.6327586,23.7766693 14.7734483,23.857033 L29.7724138,32.357033 C29.8417241,32.3951542 29.9203448,32.4157602 30,32.4157602 C30.0796552,32.4157602 30.1582759,32.3951542 30.2275862,32.357033 L42.7572414,25.2561845 Z M17.2417241,31.3355328 L27.9827586,37.4215328 C28.1224138,37.5008661 28.2951724,37.5008661 28.4358621,37.4215328 L30.2265517,36.4077146 C30.5286207,36.2366843 30.5286207,35.8080782 30.2265517,35.6370479 L15.2255172,27.1370479 C14.9234483,26.9649873 14.5458621,27.1792903 14.5458621,27.5223813 L14.5458621,44.5223813 C14.5458621,44.8644419 14.9234483,45.0787449 15.2255172,44.9077146 L17.0151724,43.8938964 C17.1548276,43.8145631 17.2417241,43.6672297 17.2417241,43.5085631 L17.2417241,31.3355328 Z" id="path-1"></path>
    </defs>
    <g id="Web" stroke="none" stroke-width="1" fill="none" fill-rule="evenodd" sketch:type="MSPage">
        <g id="0.0" sketch:type="MSArtboardGroup" transform="translate(-792.000000, -63.000000)">
            <g id="Logomark" sketch:type="MSLayerGroup" transform="translate(792.888889, 63.000000)">
                <path d="M29.9995465,0 L0.000906933507,17 L0.000906933507,17.0008901 L0,17.0008901 L0,51 L0.000906933507,51 L0.000906933507,51.0008901 L29.9995465,68 L30.0004535,67.9991099 L30.0013604,68 L60,51.0008901 L60,51 L60,50.9991099 L60,17.0008901 L60,17 L29.9995465,0 Z M2.47985509,49.5953708 L2.47985509,18.4055193 L30.0004535,2.81102779 L57.5210518,18.4055193 L57.5210518,49.5953708 L30.0004535,65.1898624 L2.47985509,49.5953708 Z" id="Hex" fill="#FFFFFF" sketch:type="MSShapeGroup"></path>
                <g id="Mav">
                    <use fill="none" sketch:type="MSShapeGroup" xlink:href="#path-1"></use>
                    <use fill="#FFFFFF" fill-rule="evenodd" xlink:href="#path-1"></use>
                </g>
            </g>
        </g>
    </g>
</svg>