<svg width="24px" height="16px" viewBox="0 0 24 16" xmlns="http://www.w3.org/2000/svg">
    <g stroke="none" stroke-width="1" fill="none" fill-rule="evenodd">
        <path d="M0.0201819515,7.21558251 C0.0855839485,3.30257844 3.68295229,-0.124175998 7.59595636,0.00636949046 C9.47089978,-0.0807470036 11.2333931,0.735097671 12.6693935,1.8810544 C12.056476,2.57746934 11.4218439,3.2482922 10.7437829,3.87568606 C9.0174804,2.68268125 6.5624497,2.34171195 4.83614719,3.71980699 C2.36664016,5.42775559 2.25419009,9.46044789 4.62960096,11.298942 C6.93960984,13.3951665 11.3057748,12.3544216 11.9440259,9.14481217 C10.4971683,9.12309767 9.04643306,9.14481217 7.59957544,9.09776409 C7.59595636,8.23461283 7.59233728,7.37146158 7.59595636,6.50856882 C10.0147962,6.50133066 12.4336361,6.49745307 14.856095,6.51580699 C15.0011169,8.54662948 14.7327877,10.7079974 13.4852382,12.3869934 C11.5958184,15.0452097 7.80276109,15.8212445 4.84338535,14.6825259 C1.87341087,13.5510455 -0.230051776,10.4140762 0.0201819515,7.21558251 Z M19.5740865,4.32884693 L21.7318354,4.32884693 C21.7354545,5.05059545 21.7390736,5.77596306 21.7463118,6.49745307 C22.4680603,6.50494974 23.1934279,6.50494974 23.9149179,6.51218791 L23.9149179,8.6699368 C23.1934279,8.67717496 22.4716794,8.68079405 21.7463118,8.68803221 C21.7390736,9.41314131 21.7354545,10.1348898 21.7318354,10.8566384 L19.5704675,10.8566384 C19.5632293,10.1348898 19.5632293,9.41314131 19.5559911,8.6916513 C18.8342426,8.68441313 18.1091335,8.67717496 17.387385,8.6699368 L17.387385,6.51218791 C18.1091335,6.50494974 18.8306235,6.50133066 19.5559911,6.49745307 C19.5596102,5.77234397 19.5668484,5.05059545 19.5740865,4.32884693 Z" id="G+"></path>
    </g>
</svg>