<?xml version="1.0" standalone="no"?>
<!DOCTYPE svg PUBLIC "-//W3C//DTD SVG 20010904//EN"
 "http://www.w3.org/TR/2001/REC-SVG-20010904/DTD/svg10.dtd">
<svg version="1.0" xmlns="http://www.w3.org/2000/svg"
 width="660.000000pt" height="660.000000pt" viewBox="0 0 660.000000 660.000000"
 preserveAspectRatio="xMidYMid meet">
<metadata>
Created by potrace 1.11, written by Peter Selinger 2001-2013
</metadata>
<g transform="translate(0.000000,660.000000) scale(0.100000,-0.100000)"
fill="#000000" stroke="none">
<path d="M1850 5776 l-1445 -823 0 -1653 0 -1653 1448 -824 1447 -823 1448
823 1447 824 0 1653 0 1653 -1440 819 c-792 451 -1444 821 -1450 823 -5 2
-660 -367 -1455 -819z m733 -1624 c389 -221 711 -402 717 -402 6 0 329 181
718 402 388 220 715 403 724 406 50 13 48 64 48 -1164 l0 -1143 -21 -11 c-17
-10 -36 -3 -120 45 -54 31 -103 65 -109 75 -6 12 -10 327 -10 899 0 485 -2
881 -5 881 -2 0 -278 -156 -612 -346 l-607 -346 -33 16 c-28 13 -1397 790
-1445 820 -16 9 -18 27 -18 131 0 128 7 150 46 142 11 -2 338 -184 727 -405z
m17 -600 c656 -374 735 -422 738 -445 4 -29 -12 -41 -143 -112 l-70 -38 -528
300 -527 301 0 -589 c0 -360 -4 -597 -10 -608 -15 -29 -187 -123 -218 -119
l-27 3 -3 850 c-1 468 0 856 3 863 2 6 15 12 27 12 13 0 354 -188 758 -418z"/>
</g>
</svg>
