<?xml version="1.0" standalone="no"?>
<!DOCTYPE svg PUBLIC "-//W3C//DTD SVG 20010904//EN"
 "http://www.w3.org/TR/2001/REC-SVG-20010904/DTD/svg10.dtd">
<svg version="1.0" xmlns="http://www.w3.org/2000/svg"
 width="512.000000pt" height="512.000000pt" viewBox="0 0 512.000000 512.000000"
 preserveAspectRatio="xMidYMid meet">
<metadata>
Created by potrace 1.11, written by Peter Selinger 2001-2013
</metadata>
<g transform="translate(0.000000,512.000000) scale(0.100000,-0.100000)"
fill="#000000" stroke="none">
<path d="M2500 4929 c-93 -100 -188 -368 -214 -604 -3 -22 -8 -69 -11 -105 -4
-36 -7 -189 -8 -340 l0 -275 -328 -240 c-181 -132 -341 -250 -357 -262 -15
-13 -30 -23 -34 -23 -5 0 -8 41 -8 90 l0 90 -44 0 c-40 0 -45 -3 -55 -31 -6
-18 -11 -44 -11 -59 0 -35 20 -91 30 -85 11 7 18 -41 8 -58 -4 -9 -142 -110
-306 -225 -414 -291 -432 -303 -433 -295 -1 5 -2 46 -3 93 l-1 85 -39 -2 c-48
-1 -57 -11 -66 -65 -7 -51 3 -98 25 -110 8 -5 15 -20 15 -33 0 -27 25 -8 -355
-263 -143 -95 -270 -183 -283 -194 -22 -20 -22 -25 -18 -157 2 -75 5 -174 5
-220 1 -46 3 -82 6 -80 2 3 6 41 9 84 4 68 8 81 28 97 13 10 27 18 32 18 5 0
102 42 215 94 113 52 231 105 261 119 30 14 120 55 199 91 80 36 148 66 153
66 4 0 8 -13 8 -29 0 -31 17 -51 25 -29 2 7 6 28 9 46 2 19 6 36 8 38 4 4 289
134 293 134 2 0 6 -14 10 -30 11 -49 35 -31 35 26 0 21 11 30 67 56 55 25 350
108 384 108 5 0 9 -10 9 -23 0 -13 6 -32 14 -42 13 -18 14 -18 20 3 4 12 10
34 12 49 3 15 6 28 7 29 9 8 211 54 215 49 3 -3 7 -12 8 -19 4 -30 16 -56 25
-56 7 0 24 68 22 90 -1 5 100 34 153 44 l31 6 0 -418 c1 -370 4 -493 18 -607
4 -34 14 -112 21 -165 3 -19 7 -53 11 -75 3 -22 7 -51 9 -65 1 -14 15 -90 31
-169 20 -106 25 -145 16 -148 -7 -3 -85 -57 -175 -121 -90 -65 -250 -180 -356
-256 -106 -76 -196 -145 -200 -154 -10 -20 -10 -142 0 -158 5 -8 35 -6 105 7
54 11 177 33 273 50 96 16 186 32 200 35 39 7 131 24 170 30 19 3 52 9 73 14
35 7 38 6 43 -19 4 -14 13 -39 21 -54 14 -29 20 -56 22 -112 2 -47 20 -16 26
45 3 30 9 57 14 60 5 3 14 24 21 47 7 23 18 40 24 38 6 -2 27 -6 46 -9 19 -3
69 -12 110 -20 41 -8 95 -17 120 -21 25 -3 61 -10 80 -15 19 -5 53 -11 75 -15
37 -5 120 -19 170 -29 11 -2 65 -11 120 -21 55 -9 103 -19 107 -21 15 -9 25
34 23 99 -2 53 -7 73 -21 86 -11 10 -122 92 -249 183 -126 90 -285 204 -352
252 -68 49 -123 94 -123 101 0 7 9 57 20 111 12 55 23 113 25 129 17 111 36
245 40 275 4 42 16 151 21 200 2 19 3 232 3 473 1 240 4 437 8 437 31 -2 178
-47 178 -55 1 -29 17 -85 25 -85 8 0 23 38 25 62 0 3 3 9 6 13 10 9 219 -47
219 -59 0 -6 5 -29 11 -51 10 -37 12 -38 25 -20 8 10 14 30 14 43 0 21 3 24
28 18 15 -3 38 -9 51 -12 115 -25 267 -70 319 -94 52 -24 62 -33 62 -54 0 -57
24 -75 35 -26 4 17 8 30 10 30 2 0 43 -18 92 -41 48 -23 113 -52 143 -66 67
-31 61 -25 66 -65 3 -18 7 -39 9 -46 8 -23 25 -2 25 29 0 35 5 35 105 -12 33
-15 85 -38 115 -52 30 -14 87 -39 125 -57 39 -18 174 -79 300 -137 127 -58
235 -109 241 -113 5 -5 10 -32 10 -60 -1 -27 2 -50 7 -50 4 0 7 33 8 73 0 39
3 125 5 189 5 104 3 118 -13 133 -10 10 -157 110 -328 224 -290 194 -310 209
-313 239 -2 24 1 32 12 32 29 0 39 118 14 153 -14 18 -67 30 -86 18 -6 -4 -12
-43 -14 -93 l-3 -86 -200 140 c-110 76 -209 146 -220 154 -89 64 -301 214
-307 216 -21 8 -14 82 8 78 18 -3 28 88 15 130 -12 41 -12 41 -58 38 l-46 -3
1 -87 c1 -49 -1 -88 -5 -88 -7 0 -159 110 -523 380 -121 90 -170 126 -184 135
-14 9 -16 48 -17 310 -1 328 -13 467 -55 630 -14 55 -27 107 -29 115 -6 27
-63 154 -90 202 -33 60 -91 118 -117 118 -11 0 -37 -18 -58 -41z"/>
</g>
</svg>
